# Blender v2.82 (sub 7) OBJ File: ''
# www.blender.org
mtllib Pick_Axe_uved_final.mtl
o Pick_Axe_uved_final
v -0.119000 112.242218 -4.123208
v -2.169478 112.242218 -5.069323
v -4.501194 112.242218 -4.740740
v -2.169478 112.242218 0.379136
v -6.023114 112.242218 -3.291208
v -6.023113 112.242218 -1.398977
v -4.501193 112.242218 0.050555
v -0.119001 112.242218 -0.566978
v 0.690797 112.242218 -2.345093
v 1.254240 107.146072 -5.116069
v 2.526553 107.146072 -2.322383
v 2.526553 101.263634 -2.322384
v 1.254240 101.263634 -5.116070
v -1.967371 107.146072 -6.602561
v -1.967371 101.263634 -6.602561
v -5.630853 107.146072 -6.086308
v -5.630855 101.263634 -6.086308
v -8.022021 107.146072 -4.364331
v -8.022021 101.263634 -3.808872
v -8.022021 107.146072 -0.120999
v -8.022021 101.263634 -0.835891
v -5.630851 107.146072 1.441542
v -5.630851 101.263634 1.441541
v -1.967371 107.146072 1.957793
v -1.967371 101.263634 1.957792
v 1.254239 107.146072 0.471305
v 1.254240 101.263634 0.471305
v 2.526553 112.241638 -2.322382
v 1.254240 112.241638 -5.116069
v 1.254239 112.241638 0.471306
v -1.967371 112.241638 1.957794
v -5.630851 112.241638 1.441543
v -8.022021 112.241638 -0.120998
v -8.022021 112.241638 -4.364331
v -5.630853 112.241638 -6.086307
v -1.967371 112.241638 -6.602560
v 51.799019 103.116806 -8.145678
v 52.513817 103.116806 -2.322377
v 52.513817 101.549522 -2.322377
v 51.799019 101.549522 -8.145679
v -48.881222 104.280945 -1.901582
v -48.881222 104.280945 -2.743160
v -48.881222 102.838516 -2.743160
v -48.881222 102.838516 -1.901582
v 51.799019 103.116806 3.500923
v 51.799019 101.549522 3.500922
v 8.752204 112.221054 -2.322381
v 7.547976 112.221054 -5.382163
v 7.547974 112.221054 0.737401
v 7.547974 108.912483 0.737401
v 8.752204 108.912483 -2.322381
v 7.547976 108.912483 -5.382164
v -21.535290 110.906700 -3.808868
v -21.535290 110.906700 -0.835887
v -21.535290 106.205704 -3.808869
v -21.535290 106.205704 -0.835888
v 18.642231 111.626694 -2.322380
v 29.316101 110.560242 -2.322379
v 28.336769 110.560242 -6.749235
v 17.546164 111.626694 -5.804879
v 28.336769 110.560242 2.104478
v 17.546164 111.626694 1.160119
v 17.546164 109.395119 1.160119
v 28.336769 108.705421 2.104478
v 18.642231 109.395119 -2.322380
v 29.316101 108.705421 -2.322379
v 28.336769 108.705421 -6.749235
v 17.546164 109.395119 -5.804879
v 37.888283 108.640030 -2.322378
v 37.001469 108.640030 -7.497633
v 37.001469 108.640030 2.852876
v 37.001469 107.083725 2.852875
v 37.888283 107.083725 -2.322379
v 37.001469 107.083725 -7.497633
v -32.652832 108.957993 -3.464720
v -32.652832 108.957993 -1.180030
v -32.652832 105.042114 -3.464721
v -32.652832 105.042114 -1.180031
v -43.205406 106.272446 -1.506685
v -43.205406 106.272446 -3.138062
v -43.205406 103.476303 -3.138062
v -43.205406 103.476303 -1.506685
v 8.752204 112.221054 -2.322381
v 7.547976 112.221054 -5.382163
v 7.547974 112.221054 0.737401
v 7.547975 108.912483 0.737401
v 8.752204 108.912483 -2.322381
v 7.547976 108.912483 -5.382164
vt 0.371890 0.580500
vt 0.378750 0.600350
vt 0.374670 0.621060
vt 0.331990 0.597820
vt 0.361030 0.632490
vt 0.346540 0.631660
vt 0.334420 0.618500
vt 0.338940 0.578140
vt 0.356270 0.570630
vt 0.911760 0.074660
vt 0.911760 0.102120
vt 0.855820 0.101910
vt 0.856570 0.073040
vt 0.441020 0.602880
vt 0.443760 0.566340
vt 0.504210 0.571990
vt 0.500790 0.608460
vt 0.436900 0.639960
vt 0.496880 0.646190
vt 0.715810 0.052800
vt 0.690030 0.051140
vt 0.693830 0.002680
vt 0.721180 0.005020
vt 0.750530 0.051070
vt 0.744950 0.006590
vt 0.765890 0.051070
vt 0.769130 0.008200
vt 0.274010 0.596210
vt 0.274730 0.630650
vt 0.219310 0.631490
vt 0.218790 0.596620
vt 0.274220 0.562630
vt 0.218560 0.563020
vt 0.911830 0.131730
vt 0.855280 0.131420
vt 0.357590 0.550940
vt 0.390070 0.564840
vt 0.326280 0.564390
vt 0.319870 0.597020
vt 0.322230 0.628910
vt 0.338740 0.646950
vt 0.365410 0.648370
vt 0.385910 0.633280
vt 0.391870 0.600170
vt 0.820050 0.002690
vt 0.842150 0.018540
vt 0.853430 0.047030
vt 0.848850 0.075720
vt 0.829870 0.091820
vt 0.807360 0.089990
vt 0.786360 0.076670
vt 0.772470 0.057500
vt 0.770290 0.037870
vt 0.679020 0.001990
vt 0.679020 0.059240
vt 0.663610 0.059240
vt 0.663610 0.001990
vt 0.712230 0.099600
vt 0.685310 0.097300
vt 0.343490 0.855620
vt 0.345470 0.855680
vt 0.347700 0.859170
vt 0.341040 0.858950
vt 0.765250 0.076260
vt 0.751160 0.076260
vt 0.679020 0.116480
vt 0.663610 0.116480
vt 0.358510 0.484110
vt 0.358510 0.484110
vt 0.391230 0.497000
vt 0.391230 0.497000
vt 0.326090 0.497040
vt 0.326090 0.497040
vt 0.291220 0.497240
vt 0.291220 0.497240
vt 0.552040 0.432100
vt 0.552040 0.432100
vt 0.581900 0.443520
vt 0.581900 0.443520
vt 0.527223 0.558393
vt 0.522080 0.443580
vt 0.426930 0.497130
vt 0.426762 0.497300
vt 0.357140 0.724960
vt 0.340990 0.724280
vt 0.393760 0.654690
vt 0.382130 0.730960
vt 0.656480 0.001990
vt 0.649460 0.134830
vt 0.620280 0.134830
vt 0.614790 0.001990
vt 0.315540 0.728380
vt 0.309850 0.651060
vt 0.357660 0.377750
vt 0.355660 0.262670
vt 0.403060 0.271900
vt 0.395540 0.389000
vt 0.308740 0.273760
vt 0.320210 0.389970
vt 0.296180 0.389970
vt 0.288850 0.272690
vt 0.552310 0.335930
vt 0.552420 0.233090
vt 0.594840 0.242330
vt 0.585940 0.346550
vt 0.510020 0.242300
vt 0.518630 0.346400
vt 0.422990 0.270050
vt 0.419790 0.388350
vt 0.353610 0.169750
vt 0.349570 0.003420
vt 0.412140 0.009160
vt 0.408560 0.177510
vt 0.287360 0.012220
vt 0.299120 0.180040
vt 0.271280 0.007440
vt 0.283010 0.176290
vt 0.552390 0.150170
vt 0.552380 0.002320
vt 0.607490 0.008640
vt 0.601520 0.158120
vt 0.497260 0.008650
vt 0.503270 0.158140
vt 0.428000 0.003610
vt 0.424510 0.172990
vt 0.352560 0.783560
vt 0.341250 0.783150
vt 0.371250 0.789460
vt 0.645980 0.244110
vt 0.623710 0.244110
vt 0.322160 0.787720
vt 0.341700 0.834070
vt 0.348650 0.834310
vt 0.359770 0.839290
vt 0.638960 0.403650
vt 0.630730 0.403650
vt 0.626910 0.347860
vt 0.642780 0.347860
vt 0.330270 0.838300
vt 0.552380 0.495180
vt 0.524920 0.507690
vt 0.579850 0.506900
vn 0.0000 1.0000 0.0000
vn 0.9101 0.0000 -0.4145
vn 0.4190 0.0000 -0.9080
vn -0.1395 0.0000 -0.9902
vn -0.6411 -0.0362 -0.7666
vn -1.0000 -0.0000 0.0000
vn -0.6254 -0.0473 0.7789
vn -0.1395 -0.0000 0.9902
vn 0.4190 -0.0000 0.9080
vn 0.9101 0.0000 0.4145
vn 0.0003 1.0000 -0.0001
vn 0.0003 1.0000 0.0001
vn 0.0002 1.0000 0.0003
vn -0.0001 1.0000 0.0004
vn -0.0002 1.0000 0.0002
vn -0.0003 1.0000 0.0000
vn -0.0002 1.0000 -0.0002
vn -0.0001 1.0000 -0.0004
vn 0.0002 1.0000 -0.0003
vn 0.0000 -1.0000 0.0000
vn 0.9926 0.0000 -0.1218
vn -0.5844 0.0000 -0.8115
vn -0.5470 -0.0000 0.8371
vn 0.9926 0.0000 0.1218
vn 0.0000 0.0000 1.0000
vn 0.0000 0.0000 -1.0000
vn -0.0983 0.9952 0.0000
vn -0.0411 0.0000 -0.9992
vn 0.0694 -0.9976 0.0000
vn -0.0528 -0.0000 0.9986
vn 0.0977 0.9949 -0.0256
vn 0.0977 0.9949 0.0256
vn -0.0872 -0.0000 0.9962
vn -0.0634 -0.9978 -0.0166
vn -0.0634 -0.9978 0.0166
vn -0.0872 0.0000 -0.9962
vn 0.3500 0.9353 -0.0510
vn 0.3500 0.9353 0.0510
vn -0.0438 -0.0000 0.9990
vn -0.3506 -0.9351 -0.0511
vn -0.3506 -0.9351 0.0511
vn -0.0438 0.0000 -0.9990
vn -0.1727 0.9850 0.0000
vn -0.0309 0.0000 -0.9995
vn 0.1041 -0.9946 0.0000
vn -0.0309 -0.0000 0.9995
vn -0.3311 0.9436 0.0000
vn -0.0694 0.0000 -0.9976
vn 0.1117 -0.9937 0.0000
vn -0.0694 -0.0000 0.9976
vn 0.0592 0.9980 -0.0208
vn 0.0592 0.9980 0.0208
vn -0.0422 -0.0000 0.9991
vn 0.0481 -0.9987 0.0169
vn 0.0481 -0.9987 -0.0169
vn -0.0422 0.0000 -0.9991
vn 0.2155 0.9756 -0.0419
vn 0.2155 0.9756 0.0419
vn -0.0861 -0.0000 0.9963
vn -0.1833 -0.9824 -0.0356
vn -0.1833 -0.9824 0.0356
vn -0.0861 0.0000 -0.9963
vn -0.2466 0.9691 0.0000
vn 0.1468 -0.9892 0.0000
vn 0.2676 -0.9569 -0.1132
vn 0.2676 -0.9569 0.1132
vn 0.0033 1.0000 0.0014
vn 0.0033 1.0000 -0.0014
usemtl defaultMat
s off
f 1/1/1 2/2/1 3/3/1 4/4/1
f 3/3/1 5/5/1 6/6/1 4/4/1
f 6/6/1 7/7/1 4/4/1
f 1/1/1 4/4/1 8/8/1 9/9/1
f 10/10/2 11/11/2 12/12/2 13/13/2
f 14/14/3 10/15/3 13/16/3 15/17/3
f 16/18/4 14/14/4 15/17/4 17/19/4
f 18/20/5 16/21/5 17/22/5 19/23/5
f 20/24/6 18/20/6 19/23/6 21/25/6
f 22/26/7 20/24/7 21/25/7 23/27/7
f 24/28/8 22/29/8 23/30/8 25/31/8
f 26/32/9 24/28/9 25/31/9 27/33/9
f 11/11/10 26/34/10 27/35/10 12/12/10
f 1/1/11 9/9/11 28/36/11 29/37/11
f 9/9/12 8/8/12 30/38/12 28/36/12
f 8/8/13 4/4/13 31/39/13 30/38/13
f 4/4/14 7/7/14 32/40/14 31/39/14
f 7/7/15 6/6/15 33/41/15 32/40/15
f 6/6/16 5/5/16 34/42/16 33/41/16
f 5/5/17 3/3/17 35/43/17 34/42/17
f 3/3/18 2/2/18 36/44/18 35/43/18
f 2/2/19 1/1/19 29/37/19 36/44/19
f 19/45/20 17/46/20 15/47/20 13/48/20 12/49/20 27/50/20 25/51/20 23/52/20 21/53/20
f 37/54/21 38/55/21 39/56/21 40/57/21
f 36/44/3 29/37/3 10/15/3 14/14/3
f 35/43/4 36/44/4 14/14/4 16/18/4
f 34/58/22 35/59/22 16/21/22 18/20/22
f 41/60/6 42/61/6 43/62/6 44/63/6
f 32/64/23 33/65/23 20/24/23 22/26/23
f 31/39/8 32/40/8 22/29/8 24/28/8
f 30/38/9 31/39/9 24/28/9 26/32/9
f 38/55/24 45/66/24 46/67/24 39/56/24
f 83/68/25 47/69/25 48/70/25 84/71/25
f 83/68/25 85/72/25 49/73/25 47/69/25
f 85/72/26 86/74/26 50/75/26 49/73/26
f 87/76/26 51/77/26 50/78/26 86/79/26
f 87/76/25 88/80/25 52/81/25 51/77/25
f 84/71/25 48/70/25 52/82/25 88/83/25
f 34/42/27 53/84/27 54/85/27 33/41/27
f 18/86/28 55/87/28 53/84/28 34/42/28
f 20/88/29 56/89/29 55/90/29 18/91/29
f 33/41/30 54/85/30 56/92/30 20/93/30
f 57/94/31 58/95/31 59/96/31 60/97/31
f 61/98/32 58/95/32 57/94/32 62/99/32
f 63/100/33 64/101/33 61/98/33 62/99/33
f 65/102/34 66/103/34 64/104/34 63/105/34
f 67/106/35 66/103/35 65/102/35 68/107/35
f 59/96/36 67/108/36 68/109/36 60/97/36
f 69/110/37 38/111/37 37/112/37 70/113/37
f 45/114/38 38/111/38 69/110/38 71/115/38
f 46/116/39 45/114/39 71/115/39 72/117/39
f 73/118/40 39/119/40 46/120/40 72/121/40
f 40/122/41 39/119/41 73/118/41 74/123/41
f 37/112/42 40/124/42 74/125/42 70/113/42
f 75/126/43 76/127/43 54/85/43 53/84/43
f 55/87/44 77/128/44 75/126/44 53/84/44
f 78/129/45 77/130/45 55/90/45 56/89/45
f 76/127/46 78/131/46 56/92/46 54/85/46
f 42/61/47 41/60/47 79/132/47 80/133/47
f 43/62/48 42/61/48 80/133/48 81/134/48
f 44/135/49 43/136/49 81/137/49 82/138/49
f 41/60/50 44/63/50 82/139/50 79/132/50
f 47/69/51 57/94/51 60/97/51 48/70/51
f 62/99/52 57/94/52 47/69/52 49/73/52
f 63/100/53 62/99/53 49/73/53 50/75/53
f 51/77/54 65/102/54 63/105/54 50/78/54
f 68/107/55 65/102/55 51/77/55 52/81/55
f 60/97/56 68/109/56 52/82/56 48/70/56
f 58/95/57 69/110/57 70/113/57 59/96/57
f 71/115/58 69/110/58 58/95/58 61/98/58
f 64/101/59 72/117/59 71/115/59 61/98/59
f 66/103/60 73/118/60 72/121/60 64/104/60
f 74/123/61 73/118/61 66/103/61 67/106/61
f 70/113/62 74/125/62 67/108/62 59/96/62
f 80/133/63 79/132/63 76/127/63 75/126/63
f 77/128/44 81/134/44 80/133/44 75/126/44
f 82/138/64 81/137/64 77/130/64 78/129/64
f 79/132/46 82/139/46 78/131/46 76/127/46
f 29/37/56 84/71/56 88/83/56 10/15/56
f 11/140/65 10/141/65 88/80/65 87/76/65
f 11/140/66 87/76/66 86/79/66 26/142/66
f 30/38/53 26/32/53 86/74/53 85/72/53
f 28/36/67 30/38/67 85/72/67 83/68/67
f 28/36/68 83/68/68 84/71/68 29/37/68
